<?xml version="1.0" encoding="UTF-8"?>
<svg width="136px" height="13px" viewBox="0 0 136 13" version="1.1" xmlns="http://www.w3.org/2000/svg" xmlns:xlink="http://www.w3.org/1999/xlink">
    <!-- Generator: Sketch 44.1 (41455) - http://www.bohemiancoding.com/sketch -->
    <title>中国银行全球服务</title>
    <desc>Created with Sketch.</desc>
    <defs></defs>
    <g id="加载动画" stroke="none" stroke-width="1" fill="none" fill-rule="evenodd">
        <g transform="translate(-120.000000, -233.000000)" id="中国银行全球服务" fill="#595757">
            <g transform="translate(120.000000, 233.000000)">
                <path d="M80.5742968,1.90151613 C80.5742968,1.90151613 78.9806839,4.62590323 74.6517161,6.23048387 L74.2875871,5.77532258 C76.5469419,4.35829032 78.3105548,2.38080645 79.4215871,0.209193548 L81.4308774,0.693967742 C81.1720387,1.11293548 80.9066194,1.47158065 80.9066194,1.47158065 C80.9066194,1.47158065 83.0935871,3.34267742 86.5144258,4.73558065 L85.3661032,6.23048387 C82.4102968,4.31332258 80.5742968,1.90151613 80.5742968,1.90151613 Z" id="Fill-1"></path>
                <polygon id="Fill-3" points="85.8525226 11.6461355 81.2658129 11.6538129 81.2658129 8.92065161 85.0069097 8.92065161 85.0069097 8.3602 81.2658129 8.3602 81.2658129 6.11949032 83.9627806 6.11949032 83.9627806 5.56013548 76.8337484 5.56013548 76.8337484 6.11949032 79.5164581 6.11949032 79.5164581 8.3602 75.7885226 8.3602 75.7885226 8.92065161 79.5164581 8.92065161 79.5164581 11.6538129 74.9472968 11.6461355 74.9472968 12.2011032 85.8525226 12.2011032"></polygon>
                <path d="M95.7534323,10.4594258 L95.0142065,9.10052258 C96.7218839,7.86116774 97.8296258,6.67994194 97.8296258,6.67994194 L97.8296258,3.26787742 L94.958271,3.26787742 L94.958271,2.71839355 L97.8296258,2.71839355 L97.8296258,0.161812903 L99.4210452,0.339490323 L99.4210452,2.71839355 L102.494206,2.71839355 L102.494206,3.26787742 L99.4210452,3.26787742 L99.4210452,4.72329677 C99.7380129,5.53271613 100.279819,6.33226452 100.279819,6.33226452 C100.279819,6.33226452 100.920335,5.71807097 101.4084,4.49626452 L102.554529,5.27936129 C101.882206,6.20503871 100.659303,6.8938129 100.659303,6.8938129 C100.659303,6.8938129 101.574013,8.41284516 103.041497,9.57652258 L101.682594,10.8378129 C100.329174,9.04787742 99.4210452,6.46168387 99.4210452,6.46168387 L99.4210452,11.2008452 C99.4210452,12.0914258 99.0711742,12.4698129 98.2485935,12.4698129 L97.6881419,12.4698129 C97.6881419,11.9334903 97.3130452,11.6242 96.4454968,11.4860065 L96.4454968,11.1854903 C96.7646581,11.2052323 96.8721419,11.2172968 97.1353677,11.2172968 C97.5576258,11.2172968 97.8296258,10.9979419 97.8296258,10.5745871 L97.8296258,7.89845806 C97.8296258,7.89845806 97.1397548,9.19594194 95.7534323,10.4594258" id="Fill-5"></path>
                <path d="M94.6952645,9.21908387 L94.9069419,9.91224516 C93.7246194,10.5779871 92.0926194,11.4740516 91.0112,11.9719871 L90.5626194,10.6613419 C90.9848774,10.5396 91.953329,10.1590194 91.953329,10.1590194 L91.953329,6.02527742 L90.6788774,6.02527742 L90.6788774,5.47250323 L91.953329,5.47250323 L91.953329,1.97489032 L90.5648129,1.97489032 L90.5648129,1.42650323 L94.9584903,1.42650323 L94.9584903,1.97489032 L93.5403613,1.97489032 L93.5403613,5.47250323 L94.7182968,5.47250323 L94.7182968,6.02527742 L93.5403613,6.02527742 L93.5403613,9.67972903 C93.5403613,9.67972903 94.3037161,9.3836 94.6952645,9.21908387" id="Fill-7"></path>
                <path d="M95.7041871,4.36925806 L95.2435419,4.71254839 C95.5670903,5.21925806 96.1308323,6.38293548 96.3644452,7.12654839 L97.4305097,6.31603226 C96.8075419,5.3793871 96.0924452,4.70377419 95.7041871,4.36925806" id="Fill-9"></path>
                <path d="M100.620368,0.324903226 L100.175077,0.580451613 C100.377981,0.98516129 100.730045,1.69587097 101.004239,2.34296774 L102.023142,1.64322581 C101.773077,1.37451613 101.036045,0.640774194 100.620368,0.324903226" id="Fill-11"></path>
                <path d="M129.256484,6.48252258 L127.628871,6.24123226 L127.628871,7.56832903 L124.114806,7.56832903 L124.136742,8.1265871 L127.570742,8.1265871 C127.570742,8.1265871 127.34371,10.3234258 123.785774,11.8819419 L124.004032,12.314071 C128.868226,11.3785226 129.110613,8.1265871 129.110613,8.1265871 L132.713516,8.1265871 L132.587387,9.68400645 C132.504032,10.4484581 132.198032,10.8718129 131.518032,10.8378129 C130.695452,10.7961355 130.241387,10.7270387 129.699581,10.6250387 L129.607452,10.9979419 C130.890677,11.1306516 131.09029,11.7338774 131.173645,12.3722 L131.807581,12.3722 C132.504032,12.3722 133.056806,12.1835548 133.418742,11.7514258 C133.76971,11.3269742 134.104226,10.9047161 134.228161,7.21516774 L132.789194,6.93549032 L132.744226,7.56832903 L129.204935,7.56832903 C129.204935,7.56832903 129.256484,7.28974839 129.256484,6.48252258" id="Fill-13"></path>
                <path d="M126.756606,2.44562581 L127.392735,1.88627097 L131.983832,1.88627097 C130.873897,2.93807742 129.291252,3.86375484 129.291252,3.86375484 C127.464026,3.18814194 126.756606,2.44562581 126.756606,2.44562581 M128.168155,4.49110968 C128.168155,4.49110968 126.572348,5.28298065 123.69551,6.15272258 L123.911574,6.63310968 C127.178865,6.01452903 129.2068,5.04388387 129.2068,5.04388387 C129.2068,5.04388387 131.184284,6.19659355 135.014219,6.63310968 L135.517639,5.23362581 C132.489445,5.08446452 130.640284,4.45820645 130.640284,4.45820645 C130.640284,4.45820645 132.74609,3.62027097 134.7148,1.78975484 L133.015897,0.777432258 L132.476284,1.3324 L127.864348,1.3324 C127.864348,1.3324 128.423703,0.651303226 128.547639,0.485690323 L126.814735,0.0963354839 C126.255381,1.28633548 125.450348,2.47085161 124.187961,3.42394839 L124.441316,3.82536774 C125.338477,3.48865806 126.14351,2.90517419 126.14351,2.90517419 C126.14351,2.90517419 126.990219,3.79027097 128.168155,4.49110968" id="Fill-15"></path>
                <polygon id="Fill-18" points="114.388065 6.19604516 117.54129 6.19604516 117.54129 5.64765806 114.388065 5.64765806"></polygon>
                <path d="M109.223355,3.97727097 L110.971613,3.97727097 L110.971613,1.58410968 L109.223355,1.58410968 L109.223355,3.97727097 Z M109.223355,6.87056129 L110.971613,6.87056129 L110.971613,4.52565806 L109.223355,4.52565806 L109.223355,6.87056129 Z M110.971613,0.606883871 L110.971613,1.03352903 L109.223355,1.03352903 L109.223355,0.651851613 L107.895161,0.526819355 L107.895161,8.56836774 C107.895161,10.2749484 107.569419,11.4901742 107.254645,12.2590129 L107.74929,12.4695935 C108.513742,11.4506903 109.223355,10.2321742 109.223355,8.20752903 L109.223355,7.41565806 L110.971613,7.41565806 L110.971613,10.4109484 C110.971613,11.0734 110.660129,11.3201742 110.144645,11.2609484 L109.655484,11.2006258 L109.630258,11.4144968 C110.369484,11.5614645 110.626129,12.0232065 110.706194,12.4323032 L111.18329,12.4323032 C111.877548,12.4323032 112.299806,12.2063677 112.299806,11.4331419 L112.299806,0.772496774 L110.971613,0.606883871 Z" id="Fill-20"></path>
                <path d="M114.69209,1.56842581 L117.418671,1.57061935 C117.418671,1.57061935 117.30351,2.62571613 117.206994,3.00300645 C117.14009,3.31997419 116.986542,3.55797419 116.638865,3.51629677 L115.816284,3.41210323 L115.786671,3.71042581 C116.588413,3.77513548 116.900994,4.07784516 117.007381,4.45184516 L117.391252,4.4375871 C118.033961,4.36300645 118.421123,4.00107097 118.524219,3.34300645 C118.620735,2.7332 118.928929,0.780941935 118.928929,0.780941935 L117.54151,0.597780645 L117.485574,1.02113548 L114.69209,1.02003871 L114.69209,0.605458065 L113.2608,0.449716129 L113.2608,12.4692645 L114.69209,12.3058452 L114.69209,1.56842581 Z" id="Fill-21"></path>
                <path d="M117.543265,5.08479355 C117.543265,5.08479355 117.163781,9.0562129 114.756361,11.8606645 L115.143523,12.2522129 C115.143523,12.2522129 118.104813,9.86124516 119.062297,5.57285806 L117.543265,5.08479355 Z" id="Fill-22"></path>
                <path d="M119.771142,11.3548323 C119.771142,11.3548323 116.519206,9.2238 115.512368,5.85231613 L114.950819,5.85231613 C114.950819,5.85231613 115.544174,10.3052194 118.820239,12.4702516 L119.771142,11.3548323 Z" id="Fill-23"></path>
                <path d="M6.38870968,7.62075484 L9.61651613,7.62075484 L9.61651613,3.23365806 L6.38870968,3.23365806 L6.38870968,7.62075484 Z M1.59141935,7.62075484 L4.79619355,7.62075484 L4.79619355,3.23365806 L1.59141935,3.23365806 L1.59141935,7.62075484 Z M11.2123226,2.02610968 L9.61651613,2.26081935 L9.61651613,2.6754 L6.3876129,2.6754 L6.3876129,0.399593548 L4.79619355,0.183529032 L4.79619355,2.6754 L1.59141935,2.6754 L1.59141935,2.26081935 L0,2.04365806 L0,9.04217419 L1.59141935,8.80527097 L1.59141935,8.17352903 L4.79619355,8.17352903 L4.79619355,12.511271 L6.3876129,12.273271 L6.3876129,8.17352903 L9.61651613,8.17352903 L9.61651613,8.98952903 L11.2123226,8.7614 L11.2123226,3.4530129 L11.2123226,2.02610968 Z" id="Fill-24"></path>
                <path d="M59.5535226,4.91446452 L61.7251355,4.91446452 L61.7251355,4.3627871 L54.4941032,4.3627871 L54.4941032,4.91446452 L57.9357806,4.91446452 L57.9357806,10.2667226 C57.9357806,10.8611742 57.6835226,11.0991742 57.2546839,11.0728516 C56.6832645,11.0256903 56.3684903,11.0026581 55.7817161,10.9686581 L55.7817161,11.2987871 C56.8817806,11.4468516 57.1866839,11.8833677 57.1866839,12.5249806 L58.2319097,12.5249806 C59.1466194,12.5249806 59.5535226,12.0796903 59.5535226,11.0882065 L59.5535226,4.91446452 Z" id="Fill-25"></path>
                <path d="M54.6972258,3.32501935 L53.2297419,2.4476 C52.2722581,4.08179355 50.873871,6.22050323 49.6224516,7.26572903 L50.0227742,7.82179355 C50.4834194,7.57392258 51.2270323,7.02005161 51.2270323,7.02005161 L51.2270323,12.5247613 L52.8162581,12.3481806 L52.8162581,5.80153548 C52.8162581,5.80153548 53.865871,4.83089032 54.6972258,3.32501935" id="Fill-26"></path>
                <path d="M49.9653032,4.10690968 C51.2331742,3.27445806 52.370529,2.04716774 53.1009806,0.802329032 L51.8572387,0.130006452 C51.1202065,1.39568387 50.3853677,2.67561935 49.4728516,3.57826452 L49.9653032,4.10690968 Z" id="Fill-27"></path>
                <polygon id="Fill-28" points="54.7871613 1.30004516 61.2054839 1.30004516 61.2054839 0.746174194 54.7871613 0.746174194"></polygon>
                <path d="M25.3649871,8.53151613 C24.996471,7.99848387 24.5084065,7.381 24.160729,6.99822581 L23.4204065,7.3426129 C23.6880194,7.84932258 24.0115677,8.53809677 24.2638258,9.08209677 L25.3649871,8.53151613 Z" id="Fill-29"></path>
                <path d="M18.3062581,11.355271 L26.2326452,11.355271 L26.2326452,1.61152903 L18.3062581,1.61152903 L18.3062581,11.355271 Z M26.2326452,0.797722581 L26.2326452,1.05875484 L18.3062581,1.05875484 L18.3062581,0.797722581 L16.7170323,0.58056129 L16.7170323,12.511271 L18.3062581,12.2776581 L18.3062581,11.8093355 L26.2326452,11.8093355 L26.2326452,12.5156581 L27.8262581,12.2974 L27.8262581,0.58056129 L26.2326452,0.797722581 Z" id="Fill-30"></path>
                <polygon id="Fill-31" points="23.0022065 9.6089871 23.0022065 6.50950323 25.2769161 6.50950323 25.2769161 5.95343871 23.0022065 5.95343871 23.0022065 3.61730968 25.4721419 3.61730968 25.4721419 3.06343871 19.0779484 3.06343871 19.0779484 3.61730968 21.4129806 3.61730968 21.4129806 5.95343871 19.2709806 5.95343871 19.2709806 6.50950323 21.4129806 6.50950323 21.4129806 9.6089871 18.9594968 9.6089871 18.9594968 10.1595677 25.5894968 10.1595677 25.5894968 9.6089871"></polygon>
                <path d="M39.668129,6.07869032 L42.6568387,6.07869032 L42.6568387,4.19881935 L39.668129,4.19881935 L39.668129,6.07869032 Z M39.668129,3.63946452 L42.6568387,3.63946452 L42.6568387,1.68391613 L39.668129,1.68391613 L39.668129,3.63946452 Z M42.8619355,9.59933548 C42.8619355,9.59933548 44.1725806,8.89630323 44.8525806,8.19765806 L43.7250968,7.42662581 C43.2194839,8.25249677 42.3409677,8.9610129 42.3409677,8.9610129 C42.3409677,8.9610129 41.6905806,8.19985161 41.2189677,6.63585161 L42.6568387,6.63585161 L42.6568387,7.14146452 L44.0848387,6.93527097 L44.0848387,0.759335484 L42.6568387,0.566303226 L42.6568387,1.12894839 L39.668129,1.12894839 L39.668129,0.695722581 L38.2478065,0.463206452 L38.2478065,11.0130774 C38.2478065,11.0130774 37.9056129,11.1282387 37.8255484,11.1348194 L38.3245806,12.4838516 C39.279871,12.1383677 40.5312903,11.525271 41.4229677,10.8748839 L41.1696129,10.2168194 C40.8142581,10.3451419 39.668129,10.6577226 39.668129,10.6577226 L39.668129,6.63585161 L40.4775484,6.63585161 C40.8844516,9.42165806 42.3585161,11.4550774 43.9740645,12.5156581 L45.0960645,11.355271 C43.7360645,10.5688839 42.8619355,9.59933548 42.8619355,9.59933548 L42.8619355,9.59933548 Z" id="Fill-32"></path>
                <path d="M35.9321871,9.71175484 L35.9321871,7.28349677 L37.8263161,7.28349677 L37.8263161,6.72852903 L35.9321871,6.72852903 L35.9321871,4.73020645 L37.549929,4.73020645 L37.549929,4.17523871 L34.203671,4.17523871 C34.6193484,3.74420645 35.1819935,2.72859355 35.1819935,2.72859355 L37.8021871,2.72859355 L37.8021871,2.17362581 L35.4068323,2.17581935 C35.4068323,2.17581935 35.8466387,1.07685161 36.0440581,0.547109677 L34.3572194,0.182980645 C33.8581871,2.06394839 33.2670258,3.83743226 32.6034774,4.92762581 L33.1474774,5.44749677 C33.4644452,5.16123871 33.8077355,4.73020645 33.8077355,4.73020645 L34.509671,4.73020645 L34.509671,6.72852903 L32.8941226,6.72852903 L32.8941226,7.28349677 L34.509671,7.28349677 L34.509671,10.4630452 C34.509671,10.4630452 34.1652839,10.6549806 33.8263806,10.7931742 L34.625929,12.256271 C35.7281871,11.3898194 37.093671,10.3160774 37.8921226,9.40575484 L37.549929,8.88698065 C36.9148968,9.32898065 35.9321871,9.71175484 35.9321871,9.71175484" id="Fill-33"></path>
            </g>
        </g>
    </g>
</svg>