<?xml version="1.0" encoding="UTF-8"?>
<svg width="108px" height="125px" viewBox="0 0 108 125" version="1.1" xmlns="http://www.w3.org/2000/svg" xmlns:xlink="http://www.w3.org/1999/xlink">
    <!-- Generator: Sketch 44.1 (41455) - http://www.bohemiancoding.com/sketch -->
    <title>地球</title>
    <desc>Created with Sketch.</desc>
    <defs></defs>
    <g id="加载动画" stroke="none" stroke-width="1" fill="none" fill-rule="evenodd">
        <g transform="translate(-134.000000, -266.000000)" id="地球">
            <g transform="translate(134.000000, 264.000000)">
                <path d="M72.7211914,18.89631 L74.439209,17.8334847 L74.057747,20.2739151 L75.0053711,20.5058197 L75.7669616,19.917304 L77.1146676,21.3632636 L79.265625,19.9772843 C81.1608408,20.7576929 82.1871266,21.2857118 82.3444824,21.561341 C82.5155,21.8608739 82.7137526,22.0382328 82.9392401,22.0934177 L83.6762695,23.3379546 L89.5517242,12.6147515 C89.4221833,13.6510172 89.3309247,14.4219824 89.2779486,14.927647 C89.2157336,15.5223599 89.2440399,16.191661 89.3659637,16.7633556 C89.4728005,17.2644461 89.6989074,17.9847267 90.0442844,18.9241976 C90.1581978,19.5659062 90.2506358,20.0984992 90.3215983,20.5219767 C90.3804716,20.4095412 90.4793473,20.2279771 90.6182253,19.9772843 L91.2663231,19.5246651 L91.6923928,20.5058197 L91.9739821,22.0934177 L88.1259766,29.2930518 C89.6630457,30.1782231 90.7402965,30.7531639 91.357729,31.0178742 C91.2822454,30.5347115 91.2428819,30.2912488 91.2064669,30.0471221 C91.0773191,29.178403 91.3431336,28.2733858 91.7764273,28.344654 C92.0347229,28.386928 92.4283582,28.8472937 92.465068,29.1910188 C92.547186,29.9608035 92.2731155,30.5293995 91.4646151,30.4054549 C92.2462834,31.1971513 92.203529,32.9002834 93.4944171,32.6964387 C93.5022308,32.3387699 93.4681747,31.8598124 93.5342229,31.4142757 C93.6066105,30.9244731 93.6857799,30.2706651 93.9172434,30.0422528 C94.2035504,29.7596148 94.7227953,29.8545653 94.7465313,30.5944705 C94.7608319,31.0377939 94.5255353,31.5554841 94.3211988,31.9436964 C94.0624609,32.4352697 93.7213103,32.8292365 93.3468407,33.3635265 C93.7092211,33.7096861 93.7264703,36.1335387 93.9172434,36.3159143 C93.9165062,36.4119714 94.7471211,39.9118781 94.7465313,40.0079352 C94.7471211,41.2677061 92.5873211,38.4289434 92.465068,38.3000169 C90.6182253,36.3523603 90.4533838,33.92172 87.4495679,31.9724692 C83.2563024,29.251355 77.6878202,25.4184539 72.9787915,23.9995091 C70.2251132,23.169744 67.4565446,22.4231989 64.6769188,21.8233954 C62.7963148,21.4172554 60.8868148,21.2824656 58.9868977,21.115583 C56.808045,20.9245755 54.6225579,20.6572092 52.4451795,20.7391012 C49.3883872,20.8541926 46.3307104,21.1631689 43.2833536,21.561341 C34.7520815,22.6759575 26.3391636,27.7805662 19.3277679,32.6964387 C16.3300946,34.7981856 14.2890371,38.1609481 12.2439024,39.451743 C12.5608747,38.6221992 15.498199,34.693718 15.7379185,34.0742162 C16.3904392,32.3637802 15.2177431,30.1482698 16.3300946,30.3043072 C16.6631367,30.3510078 17.153338,29.9209642 17.3600334,29.483838 C17.6886526,28.7888627 17.9444418,28.2913135 18.5987316,29.0670741 C18.6061031,28.9378176 18.6134745,28.8087824 18.620846,28.6795258 C18.4656032,28.4455803 18.2799902,28.241293 18.162047,27.9703854 C17.9790876,27.5507443 17.842421,27.0855093 17.6861463,26.6397512 C17.9590373,26.4440958 18.2507992,26.0439316 18.5009862,26.0957228 C19.010943,26.2010757 19.0865741,27.0286275 18.9070056,27.4810254 C18.5039348,28.4973715 19.0286345,28.7919613 19.3277679,29.2930518 C19.8822482,29.0252428 20.2979979,28.8200702 20.002108,27.6968219 C19.4775557,25.7048545 19.7408638,24.9629573 21.06168,23.969187 C21.1837512,23.8773351 21.240069,23.5626043 21.3072966,23.3379546 C21.4637188,22.8156165 21.552471,22.215149 21.7871779,21.7957292 C21.8707701,21.6463317 22.3847075,21.7932946 22.5502703,22.0371999 C23.1994,22.9937869 23.9425895,22.9209694 24.7481413,22.6781708 C24.8399896,23.0712523 24.9333121,23.4707524 25.038429,23.9211584 C25.2396695,22.7335032 26.460234,23.8000911 26.4745346,22.2443645 C26.6644231,22.4422333 26.8167172,22.6007054 26.943801,22.7330605 C27.6955413,22.3415283 27.6853687,21.6454463 27.4497772,20.6864247 C27.3073608,20.1069835 27.3887416,19.403819 27.4929739,18.6417808 C27.6358326,18.9339361 27.7788387,19.2260913 27.9800792,19.6371006 C28.0190005,19.3285669 28.0483388,19.1129918 28.0731069,18.89631 C28.1255916,18.4352802 28.0893241,17.8901452 28.2439771,17.5284924 C28.6277347,16.6316644 28.5128875,12.9881348 28.2439771,11.7931757 C28.2293816,11.7281047 28.3539591,11.5922083 28.5510716,11.2531312 C28.5613916,12.9693217 30.0544048,16.0444767 30.6728693,16.7405586 C31.0013411,17.1104006 31.2154079,17.7088761 31.541226,18.3159835 L31.541226,17.209999 C31.6181839,17.1699383 31.6951418,17.1300989 31.7720997,17.0902596 C32.0343759,18.0933258 32.2967994,19.0966134 32.511456,19.917304 C33.2341528,19.4587088 33.9797011,18.9857272 34.9244259,18.3863664 C35.2506862,18.5198282 35.637245,19.8686114 36.4175865,19.0961707 C36.6682158,18.8482815 36.8293556,18.3963262 37.1464754,17.8334847 C37.1217073,17.8372474 37.314397,17.8489778 37.4898374,17.7721764 C38.2169571,17.4545683 38.6850441,16.3581009 39.5747779,16.4194092 C40.385195,16.4751843 41.2057846,16.1940956 41.9474997,16.0734709 C42.0823972,15.5646339 42.1771941,15.2069651 42.2718435,14.8492963 C42.3368597,14.8782905 42.4018758,14.9072847 42.466892,14.9362789 C42.4990315,15.2507884 42.531171,15.5655192 42.5594774,15.8437307 C43.3038463,16.6909808 43.5204194,15.2687161 44.0319979,15.0664207 C44.2214442,14.9916113 44.2479814,14.5861353 44.5457879,15.0130803 C44.703242,15.2388366 45.2074491,14.9196791 45.5136591,14.6102602 C45.8139719,14.765855 46.1142847,14.9214498 46.3544465,15.0456157 C46.4100272,14.0332536 46.4605953,13.116506 46.5238424,11.9658128 C46.7063594,12.5001027 46.817226,12.8245721 46.9279452,13.1490414 C46.9515338,11.4906179 47.7958595,11.7150463 48.440419,11.6070374 C48.9438889,11.5227107 49.4587109,11.5902163 50.0103901,11.5902163 C50.0260175,11.2726082 50.0376644,11.0612383 50.0465102,10.8494258 C50.1678442,7.94137472 50.288736,5.033545 50.4149352,2 C50.5436406,3.56590769 50.6466935,5.0193799 50.7861613,6.46510556 C50.9682361,8.35304798 51.1553234,10.2418757 51.4071321,12.1101198 C51.4395665,12.3509265 51.906474,12.6853557 52.1108106,12.6085543 C52.905895,12.3095379 53.2091564,12.8241294 53.3773729,13.9000132 C53.4535936,14.3882665 53.7257475,14.808129 53.9109183,15.2569856 C54.0910765,15.6938904 54.2735936,16.128582 54.4683472,16.5960303 L54.4683472,13.7446397 C54.5073668,13.742574 54.5657978,14.6551901 54.6436403,16.4824882 C54.6936187,16.5305167 54.7437446,16.5785453 54.793723,16.6263525 C54.9312742,16.3317627 55.2000372,16.0199091 55.1841149,15.7452389 C55.1089261,14.4469189 55.4543522,13.4312368 55.975661,12.5310889 C56.5913244,13.4325648 56.7703032,14.5513865 56.6989475,15.8154005 C56.6881852,16.0068507 56.8925218,16.2255244 56.9973438,16.4315824 C57.0883074,16.2073754 57.2454667,15.9909149 57.2578508,15.7571907 C57.2935286,15.0878897 57.2703822,14.4115061 57.4270992,13.7278186 L57.4270992,16.7033753 C57.6189043,16.2000715 57.7770956,15.784857 57.9562218,15.314974 C58.0794724,15.4508704 58.1811984,15.5630846 58.3626835,15.7631666 C58.4138413,15.2379512 58.4577751,14.7886519 58.5062793,14.2917667 L59.5183791,14.2917667 C59.6690516,13.4228263 59.8129422,12.5935039 59.9954593,11.5404171 C60.0930573,12.4082509 60.1663295,13.0602882 60.2264805,13.5943568 C60.5236973,13.3889629 60.8226832,13.1824622 61.2259015,12.9038081 C61.2749953,12.6689773 61.3665487,12.2309658 61.4579547,11.7931757 C61.4949593,12.8013325 61.5567321,13.7140962 62.5070592,13.2725434 C62.7466313,11.5871177 62.9895942,9.87646037 63.2327046,8.16580304 C63.3167391,8.17952549 63.4006262,8.19324793 63.4846607,8.20697037 L63.4846607,13.521318 C63.792345,13.5492056 64.0752612,13.5746585 64.4069763,13.6047593 C64.5095869,13.2019393 64.6080695,12.8152762 64.6435998,12.6753959 C64.9346246,13.2070298 65.2827044,13.8426888 65.7043513,14.6129161 C65.9045598,13.8798722 66.0435853,13.3705925 66.2299355,12.6877903 C66.3080729,13.6472546 66.3717622,14.4305405 66.4426755,15.3021369 C66.7913942,15.3570266 67.1741905,15.4139084 67.5910645,15.4727821 L68.385498,13.521318 L69.0876465,16.0734709 L69.5014648,17.5284924 L71.2141681,16.5960303 L71.2141681,18.6417808 L72.7211914,18.89631 Z" id="Fill-1-Copy" fill="#A5A5A5"></path>
                <path d="M53.6097561,19.8805042 C24.1130867,19.8805042 0.131375251,43.8622156 0.131375251,73.358885 C0.131375251,102.855554 24.0295267,126.837266 53.6097561,126.837266 C83.1064255,126.837266 107.088137,102.855554 107.088137,73.358885 C107.088137,43.8622156 83.1064255,19.8805042 53.6097561,19.8805042 Z" id="Shape" fill="#F0F0F0"></path>
                <path d="M101.818191,50.2116048 C100.678152,49.5459455 99.5296684,50.6449072 99.2899242,52.163287 C99.0158432,53.7164127 99.0158432,57.0967452 98.0108795,59.6548346 C97.0059158,62.212924 94.4478264,62.487005 90.7934129,64.3142117 C87.1389995,66.0500581 88.2353235,66.0500581 87.6871615,68.4254269 C87.2303598,70.7094353 88.7834855,70.9835163 89.7884492,73.358885 C90.7934129,75.7342538 90.7934129,75.9169744 90.7934129,80.3022706 C90.7934129,84.778927 87.9612425,84.9616477 87.6871615,87.3370164 C87.5044408,89.7123852 86.9562788,91.7223126 85.1290721,94.0976813 C83.3018653,96.3816897 82.0228206,96.1076087 79.1906502,101.589229 C76.3584798,106.979489 75.0794351,108.898056 72.2472647,108.623975 C69.4150943,108.349894 70.96822,103.142355 70.420058,100.766986 C69.8718959,98.3916171 68.8669322,94.7372037 68.8669322,92.1791143 C68.8669322,89.5296645 68.8669322,84.6875667 67.5878875,82.312198 C66.3088428,79.9368292 66.8570048,76.5564968 66.0347618,75.2774521 C65.3038791,73.9984074 64.4816361,72.7193627 62.1976277,71.1662369 C59.822259,69.6131112 56.5332869,66.5068598 52.6047924,66.5068598 C48.6762979,66.5068598 46.6663705,64.9537341 43.0119571,62.1215637 C39.3575437,59.2893932 41.9156331,55.4522591 44.2910018,53.3509714 C46.5750102,51.2496837 47.8540549,50.4274406 48.6762979,49.4224769 C49.4071806,48.4175132 52.3307114,47.0471082 53.6097561,46.0421445 C54.9801611,44.9458205 51.5084684,42.3877311 50.2294237,39.2814796 C48.8590186,36.1752282 43.5601191,35.2616248 40.7279487,36.5406695 C37.8044179,37.8197143 36.4340129,40.3778037 36.4340129,42.9358931 C36.4340129,45.4939825 35.7031302,46.4989462 33.8759235,48.6002339 C32.0487168,50.7015217 33.3277615,54.8127368 31.0437531,55.6349798 C28.6683843,56.4572228 29.4906274,53.8077731 27.1152586,53.3509714 C24.8312502,52.8941697 24.2830882,49.7879183 24.8312502,47.4125495 C25.3794122,45.1285411 23.8262865,44.1235774 21.9990798,44.8544601 C20.1718731,45.5853428 20.9027558,46.3162255 20.3545937,50.0619993 C19.8064317,53.8077731 14.9643339,54.4472954 11.3099205,54.7213764 C7.74686735,54.9954575 9.02591205,50.518801 10.5790378,49.2397563 C12.0408031,47.9607116 11.0358394,46.4989462 10.4876774,46.2248652 C9.77716377,45.8696083 8.62459423,45.5696085 7.15888968,46.8719159 C16.3803069,30.7579699 33.7443043,19.8804338 53.6097561,19.8804338 C74.8187968,19.8804338 93.1765715,32.2791206 101.818191,50.2116048 Z M25.2386803,118.702833 C11.4674367,110.06779 1.92152615,95.3343995 0.35768135,78.3110927 C1.05708482,79.1362241 1.70308782,79.0859889 2.90476953,78.1096225 C4.45789525,76.8305778 2.63068852,72.810723 7.56414668,73.2675247 C12.4976048,73.7243264 16.7001803,79.7541085 19.2582697,80.7590722 C21.8163591,81.8553963 31.4091944,83.134441 27.754781,89.3469438 C24.1003675,95.5594467 21.2681971,99.4879412 19.4409904,101.041067 C17.6137837,102.594193 17.6137837,106.431327 17.8878647,108.806695 C18.1004538,110.578271 21.4460165,115.482821 25.2386857,118.702837 Z" id="Combined-Shape" fill="#C7C7C7" fill-rule="nonzero"></path>
                <path d="M78.7003793,18.7285294 L78.7003793,15.5955294 L79.9443793,15.5955294 C80.9563793,15.5955294 81.7743793,14.7765294 81.7743793,13.7635294 L81.7743793,10.4945294 C81.7743793,9.48352944 80.9563793,8.66252944 79.9443793,8.66252944 L78.7003793,8.66252944 L78.7003793,5.52952944 C81.9213793,6.00352944 84.3913793,8.77952944 84.3913793,12.1285294 C84.3913793,15.4815294 81.9213793,18.2535294 78.7003793,18.7285294 L78.7003793,18.7285294 Z M75.6923793,13.7635294 C75.5833793,13.7635294 75.4973793,13.6765294 75.4973793,13.5675294 L75.4973793,10.6905294 C75.4973793,10.5825294 75.5833793,10.4945294 75.6923793,10.4945294 L79.7473793,10.4945294 C79.8543793,10.4945294 79.9443793,10.5825294 79.9443793,10.6905294 L79.9443793,13.5675294 C79.9443793,13.6765294 79.8543793,13.7635294 79.7473793,13.7635294 L75.6923793,13.7635294 Z M76.7373793,18.7285294 C73.5203793,18.2535294 71.0483793,15.4815294 71.0483793,12.1285294 C71.0483793,8.77952944 73.5203793,6.00352944 76.7373793,5.52952944 L76.7373793,8.66252944 L75.4973793,8.66252944 C74.4833793,8.66252944 73.6633793,9.48352944 73.6633793,10.4945294 L73.6633793,13.7635294 C73.6633793,14.7765294 74.4833793,15.5955294 75.4973793,15.5955294 L76.7373793,15.5955294 L76.7373793,18.7285294 Z M77.7183793,3.62452944 C73.0223793,3.62452944 69.2163793,7.43352944 69.2163793,12.1285294 C69.2163793,16.8245294 73.0223793,20.6325294 77.7183793,20.6325294 C82.4153793,20.6325294 86.2233793,16.8245294 86.2233793,12.1285294 C86.2233793,7.43352944 82.4153793,3.62452944 77.7183793,3.62452944 L77.7183793,3.62452944 Z" id="logo" fill="#A5A5A5" transform="translate(77.719879, 12.128529) rotate(-330.000000) translate(-77.719879, -12.128529) "></path>
            </g>
        </g>
    </g>
</svg>